<?xml version="1.0" standalone="no"?>
<!DOCTYPE svg PUBLIC "-//W3C//DTD SVG 20010904//EN"
 "http://www.w3.org/TR/2001/REC-SVG-20010904/DTD/svg10.dtd">
<svg version="1.0" xmlns="http://www.w3.org/2000/svg"
 width="461.000000pt" height="541.000000pt" viewBox="0 0 461.000000 541.000000"
 preserveAspectRatio="xMidYMid meet">

<g transform="translate(0.000000,541.000000) scale(0.100000,-0.100000)"
fill="#000000" stroke="none">
<path d="M0 2705 l0 -2705 2305 0 2305 0 0 2705 0 2705 -2305 0 -2305 0 0
-2705z m218 2583 c66 -63 406 -354 597 -513 33 -28 107 -91 165 -140 58 -50
139 -117 180 -150 41 -33 138 -114 215 -180 77 -66 199 -170 270 -229 72 -60
136 -114 143 -121 10 -9 13 -368 12 -1910 0 -1043 -4 -1904 -8 -1911 -6 -11
-14 -8 -38 14 -17 15 -55 46 -85 69 -135 104 -256 199 -270 210 -33 29 -137
110 -354 273 -317 239 -368 279 -628 487 -125 100 -238 190 -252 200 l-25 18
-2 488 c-2 268 -1 487 1 487 3 0 25 -17 50 -38 25 -21 168 -130 316 -242 149
-112 353 -268 455 -347 102 -78 237 -182 300 -231 l115 -89 6 106 c9 149 10
1123 2 1633 l-6 427 -71 42 c-70 41 -135 89 -308 223 -89 68 -194 136 -211
136 -17 0 0 -78 23 -110 13 -18 64 -64 114 -104 50 -40 96 -79 102 -87 19 -23
23 -227 16 -720 l-7 -467 -95 80 c-88 74 -410 329 -690 546 l-120 93 0 1065
c0 585 3 1064 6 1064 3 0 40 -33 82 -72z m4238 -465 c-3 -38 -8 -104 -11 -148
-10 -149 1 -131 -179 -267 -88 -67 -251 -197 -361 -288 -110 -91 -245 -201
-300 -245 -55 -43 -118 -95 -141 -114 -65 -58 -96 -84 -144 -121 -25 -19 -46
-38 -48 -42 -2 -5 -8 -8 -13 -8 -5 0 -20 -9 -33 -21 -13 -12 -27 -21 -30 -20
-4 1 -22 -14 -41 -34 -20 -19 -40 -35 -46 -35 -6 0 -7 -4 -4 -10 3 -5 2 -10
-3 -10 -5 0 -31 -20 -58 -45 l-49 -45 -3 130 c-1 75 -7 130 -12 130 -12 0 -11
7 -19 -119 l-6 -104 -64 54 c-195 166 -447 366 -661 526 -97 72 -188 143 -203
157 l-27 25 0 180 0 179 88 -87 c86 -85 171 -161 467 -415 178 -154 312 -272
378 -334 l47 -44 21 25 c29 38 551 491 788 685 69 57 200 165 290 240 198 166
359 292 372 292 6 0 8 -26 5 -67z m13 -933 c-5 -39 -7 -221 -3 -460 4 -217 3
-448 -1 -513 l-7 -118 -82 -69 c-44 -38 -153 -128 -241 -201 -88 -73 -254
-212 -370 -308 -115 -97 -277 -232 -360 -300 -82 -69 -209 -178 -282 -243 -72
-65 -137 -118 -143 -118 -14 0 -42 21 -250 185 -228 180 -336 264 -400 310
-30 22 -84 63 -120 93 -36 29 -73 60 -83 68 -16 13 -17 54 -15 661 2 479 6
647 15 650 6 2 44 -25 85 -60 40 -35 187 -156 327 -268 140 -112 284 -228 320
-258 36 -29 99 -78 139 -109 l73 -55 37 35 c20 19 138 118 262 218 222 181
441 365 655 550 61 52 164 139 230 192 66 54 143 117 170 142 28 24 51 43 52
42 1 -1 -2 -31 -8 -66z m15 -1722 c-4 -13 -10 -175 -13 -360 l-6 -337 -57 -51
c-31 -27 -89 -77 -130 -110 -40 -33 -82 -68 -92 -77 -13 -13 -17 -14 -11 -3 5
8 -12 -6 -36 -31 -24 -25 -62 -59 -84 -75 -22 -16 -42 -31 -45 -34 -10 -11
-126 -105 -154 -125 -45 -32 -139 -107 -164 -132 -13 -13 -27 -23 -33 -23 -6
0 -8 -4 -5 -8 3 -5 -9 -17 -27 -27 -18 -10 -46 -32 -63 -49 -45 -44 -83 -77
-129 -111 -22 -17 -90 -70 -151 -120 -61 -49 -124 -100 -140 -113 -16 -12 -68
-61 -116 -108 -49 -47 -93 -82 -99 -79 -7 5 -9 111 -7 341 l3 333 50 52 c28
28 77 74 111 103 33 28 129 109 213 180 85 71 244 208 355 305 111 97 222 192
246 211 75 58 261 211 330 271 99 86 242 199 253 199 5 0 6 -9 1 -22z"/>
<path d="M3085 441 c-3 -6 -15 -8 -26 -6 -15 3 -18 1 -12 -8 13 -17 -7 -51
-32 -55 -33 -6 -31 -12 5 -12 28 0 31 -2 20 -15 -10 -13 -11 -18 -1 -28 10 -9
11 -9 7 3 -4 10 8 25 33 42 21 15 41 37 44 49 5 20 5 20 -14 3 -10 -9 -22 -14
-26 -10 -5 4 0 12 10 17 18 11 23 29 8 29 -6 0 -12 -4 -16 -9z m-19 -78 c-10
-10 -19 5 -10 18 6 11 8 11 12 0 2 -7 1 -15 -2 -18z"/>
<path d="M3150 440 c-9 -6 -10 -10 -3 -10 6 0 15 5 18 10 8 12 4 12 -15 0z"/>
</g>
</svg>
